<?xml version="1.0" encoding="utf-8" standalone="no"?>
<!DOCTYPE svg PUBLIC "-//W3C//DTD SVG 1.1//EN"
  "http://www.w3.org/Graphics/SVG/1.1/DTD/svg11.dtd">
<svg xmlns:xlink="http://www.w3.org/1999/xlink" width="704.604142pt" height="422.981713pt" viewBox="0 0 704.604142 422.981713" xmlns="http://www.w3.org/2000/svg" version="1.1">
 <metadata>
  <rdf:RDF xmlns:dc="http://purl.org/dc/elements/1.1/" xmlns:cc="http://creativecommons.org/ns#" xmlns:rdf="http://www.w3.org/1999/02/22-rdf-syntax-ns#">
   <cc:Work>
    <dc:type rdf:resource="http://purl.org/dc/dcmitype/StillImage"/>
    <dc:date>2026-05-11T18:59:46.866937</dc:date>
    <dc:format>image/svg+xml</dc:format>
    <dc:creator>
     <cc:Agent>
      <dc:title>Matplotlib v3.10.8, https://matplotlib.org/</dc:title>
     </cc:Agent>
    </dc:creator>
   </cc:Work>
  </rdf:RDF>
 </metadata>
 <defs>
  <style type="text/css">*{stroke-linejoin: round; stroke-linecap: butt}</style>
 </defs>
 <g id="figure_1">
  <g id="patch_1">
   <path d="M 0 422.981713 
L 704.604142 422.981713 
L 704.604142 0 
L 0 0 
z
" style="fill: #ffffff"/>
  </g>
  <g id="axes_1">
   <g id="patch_2">
    <path d="M 45.785688 286.599157 
L 697.404142 286.599157 
L 697.404142 22.318125 
L 45.785688 22.318125 
z
" style="fill: #ffffff"/>
   </g>
   <g id="patch_3">
    <path d="M 75.404709 286.599157 
L 83.464306 286.599157 
L 83.464306 205.33401 
L 75.404709 205.33401 
z
" clip-path="url(#p14f05fcda6)" style="fill: #1f77b4"/>
   </g>
   <g id="patch_4">
    <path d="M 135.85169 286.599157 
L 143.911287 286.599157 
L 143.911287 87.449382 
L 135.85169 87.449382 
z
" clip-path="url(#p14f05fcda6)" style="fill: #1f77b4"/>
   </g>
   <g id="patch_5">
    <path d="M 196.29867 286.599157 
L 204.358268 286.599157 
L 204.358268 78.921558 
L 196.29867 78.921558 
z
" clip-path="url(#p14f05fcda6)" style="fill: #1f77b4"/>
   </g>
   <g id="patch_6">
    <path d="M 256.745651 286.599157 
L 264.805249 286.599157 
L 264.805249 97.482116 
L 256.745651 97.482116 
z
" clip-path="url(#p14f05fcda6)" style="fill: #1f77b4"/>
   </g>
   <g id="patch_7">
    <path d="M 317.192632 286.599157 
L 325.25223 286.599157 
L 325.25223 150.655608 
L 317.192632 150.655608 
z
" clip-path="url(#p14f05fcda6)" style="fill: #1f77b4"/>
   </g>
   <g id="patch_8">
    <path d="M 377.639613 286.599157 
L 385.699211 286.599157 
L 385.699211 86.446108 
L 377.639613 86.446108 
z
" clip-path="url(#p14f05fcda6)" style="fill: #1f77b4"/>
   </g>
   <g id="patch_9">
    <path d="M 438.086594 286.599157 
L 446.146192 286.599157 
L 446.146192 141.626147 
L 438.086594 141.626147 
z
" clip-path="url(#p14f05fcda6)" style="fill: #1f77b4"/>
   </g>
   <g id="patch_10">
    <path d="M 498.533575 286.599157 
L 506.593172 286.599157 
L 506.593172 78.419921 
L 498.533575 78.419921 
z
" clip-path="url(#p14f05fcda6)" style="fill: #1f77b4"/>
   </g>
   <g id="patch_11">
    <path d="M 558.980556 286.599157 
L 567.040153 286.599157 
L 567.040153 71.898644 
L 558.980556 71.898644 
z
" clip-path="url(#p14f05fcda6)" style="fill: #1f77b4"/>
   </g>
   <g id="patch_12">
    <path d="M 619.427537 286.599157 
L 627.487134 286.599157 
L 627.487134 83.436288 
L 619.427537 83.436288 
z
" clip-path="url(#p14f05fcda6)" style="fill: #1f77b4"/>
   </g>
   <g id="patch_13">
    <path d="M 83.464306 286.599157 
L 91.523904 286.599157 
L 91.523904 133.098323 
L 83.464306 133.098323 
z
" clip-path="url(#p14f05fcda6)" style="fill: #ff7f0e"/>
   </g>
   <g id="patch_14">
    <path d="M 143.911287 286.599157 
L 151.970884 286.599157 
L 151.970884 85.693653 
L 143.911287 85.693653 
z
" clip-path="url(#p14f05fcda6)" style="fill: #ff7f0e"/>
   </g>
   <g id="patch_15">
    <path d="M 204.358268 286.599157 
L 212.417865 286.599157 
L 212.417865 71.020779 
L 204.358268 71.020779 
z
" clip-path="url(#p14f05fcda6)" style="fill: #ff7f0e"/>
   </g>
   <g id="patch_16">
    <path d="M 264.805249 286.599157 
L 272.864846 286.599157 
L 272.864846 106.00994 
L 264.805249 106.00994 
z
" clip-path="url(#p14f05fcda6)" style="fill: #ff7f0e"/>
   </g>
   <g id="patch_17">
    <path d="M 325.25223 286.599157 
L 333.311827 286.599157 
L 333.311827 152.285927 
L 325.25223 152.285927 
z
" clip-path="url(#p14f05fcda6)" style="fill: #ff7f0e"/>
   </g>
   <g id="patch_18">
    <path d="M 385.699211 286.599157 
L 393.758808 286.599157 
L 393.758808 63.120001 
L 385.699211 63.120001 
z
" clip-path="url(#p14f05fcda6)" style="fill: #ff7f0e"/>
   </g>
   <g id="patch_19">
    <path d="M 446.146192 286.599157 
L 454.205789 286.599157 
L 454.205789 150.028562 
L 446.146192 150.028562 
z
" clip-path="url(#p14f05fcda6)" style="fill: #ff7f0e"/>
   </g>
   <g id="patch_20">
    <path d="M 506.593172 286.599157 
L 514.65277 286.599157 
L 514.65277 65.377366 
L 506.593172 65.377366 
z
" clip-path="url(#p14f05fcda6)" style="fill: #ff7f0e"/>
   </g>
   <g id="patch_21">
    <path d="M 567.040153 286.599157 
L 575.099751 286.599157 
L 575.099751 67.634732 
L 567.040153 67.634732 
z
" clip-path="url(#p14f05fcda6)" style="fill: #ff7f0e"/>
   </g>
   <g id="patch_22">
    <path d="M 627.487134 286.599157 
L 635.546732 286.599157 
L 635.546732 89.079701 
L 627.487134 89.079701 
z
" clip-path="url(#p14f05fcda6)" style="fill: #ff7f0e"/>
   </g>
   <g id="patch_23">
    <path d="M 91.523904 286.599157 
L 99.583501 286.599157 
L 99.583501 131.96964 
L 91.523904 131.96964 
z
" clip-path="url(#p14f05fcda6)" style="fill: #2ca02c"/>
   </g>
   <g id="patch_24">
    <path d="M 151.970884 286.599157 
L 160.030482 286.599157 
L 160.030482 64.248684 
L 151.970884 64.248684 
z
" clip-path="url(#p14f05fcda6)" style="fill: #2ca02c"/>
   </g>
   <g id="patch_25">
    <path d="M 212.417865 286.599157 
L 220.477463 286.599157 
L 220.477463 68.763414 
L 212.417865 68.763414 
z
" clip-path="url(#p14f05fcda6)" style="fill: #2ca02c"/>
   </g>
   <g id="patch_26">
    <path d="M 272.864846 286.599157 
L 280.924444 286.599157 
L 280.924444 75.911737 
L 272.864846 75.911737 
z
" clip-path="url(#p14f05fcda6)" style="fill: #2ca02c"/>
   </g>
   <g id="patch_27">
    <path d="M 333.311827 286.599157 
L 341.371425 286.599157 
L 341.371425 137.613053 
L 333.311827 137.613053 
z
" clip-path="url(#p14f05fcda6)" style="fill: #2ca02c"/>
   </g>
   <g id="patch_28">
    <path d="M 393.758808 286.599157 
L 401.818406 286.599157 
L 401.818406 74.406827 
L 393.758808 74.406827 
z
" clip-path="url(#p14f05fcda6)" style="fill: #2ca02c"/>
   </g>
   <g id="patch_29">
    <path d="M 454.205789 286.599157 
L 462.265386 286.599157 
L 462.265386 138.741736 
L 454.205789 138.741736 
z
" clip-path="url(#p14f05fcda6)" style="fill: #2ca02c"/>
   </g>
   <g id="patch_30">
    <path d="M 514.65277 286.599157 
L 522.712367 286.599157 
L 522.712367 49.57581 
L 514.65277 49.57581 
z
" clip-path="url(#p14f05fcda6)" style="fill: #2ca02c"/>
   </g>
   <g id="patch_31">
    <path d="M 575.099751 286.599157 
L 583.159348 286.599157 
L 583.159348 39.417666 
L 575.099751 39.417666 
z
" clip-path="url(#p14f05fcda6)" style="fill: #2ca02c"/>
   </g>
   <g id="patch_32">
    <path d="M 635.546732 286.599157 
L 643.606329 286.599157 
L 643.606329 74.406827 
L 635.546732 74.406827 
z
" clip-path="url(#p14f05fcda6)" style="fill: #2ca02c"/>
   </g>
   <g id="patch_33">
    <path d="M 99.583501 286.599157 
L 107.643098 286.599157 
L 107.643098 199.690597 
L 99.583501 199.690597 
z
" clip-path="url(#p14f05fcda6)" style="fill: #d62728"/>
   </g>
   <g id="patch_34">
    <path d="M 160.030482 286.599157 
L 168.090079 286.599157 
L 168.090079 156.42443 
L 160.030482 156.42443 
z
" clip-path="url(#p14f05fcda6)" style="fill: #d62728"/>
   </g>
   <g id="patch_35">
    <path d="M 220.477463 286.599157 
L 228.53706 286.599157 
L 228.53706 164.701436 
L 220.477463 164.701436 
z
" clip-path="url(#p14f05fcda6)" style="fill: #d62728"/>
   </g>
   <g id="patch_36">
    <path d="M 280.924444 286.599157 
L 288.984041 286.599157 
L 288.984041 171.473531 
L 280.924444 171.473531 
z
" clip-path="url(#p14f05fcda6)" style="fill: #d62728"/>
   </g>
   <g id="patch_37">
    <path d="M 341.371425 286.599157 
L 349.431022 286.599157 
L 349.431022 213.234788 
L 341.371425 213.234788 
z
" clip-path="url(#p14f05fcda6)" style="fill: #d62728"/>
   </g>
   <g id="patch_38">
    <path d="M 401.818406 286.599157 
L 409.878003 286.599157 
L 409.878003 144.385149 
L 401.818406 144.385149 
z
" clip-path="url(#p14f05fcda6)" style="fill: #d62728"/>
   </g>
   <g id="patch_39">
    <path d="M 462.265386 286.599157 
L 470.324984 286.599157 
L 470.324984 213.234788 
L 462.265386 213.234788 
z
" clip-path="url(#p14f05fcda6)" style="fill: #d62728"/>
   </g>
   <g id="patch_40">
    <path d="M 522.712367 286.599157 
L 530.771965 286.599157 
L 530.771965 168.087484 
L 522.712367 168.087484 
z
" clip-path="url(#p14f05fcda6)" style="fill: #d62728"/>
   </g>
   <g id="patch_41">
    <path d="M 583.159348 286.599157 
L 591.218946 286.599157 
L 591.218946 156.800658 
L 583.159348 156.800658 
z
" clip-path="url(#p14f05fcda6)" style="fill: #d62728"/>
   </g>
   <g id="patch_42">
    <path d="M 643.606329 286.599157 
L 651.665927 286.599157 
L 651.665927 172.602214 
L 643.606329 172.602214 
z
" clip-path="url(#p14f05fcda6)" style="fill: #d62728"/>
   </g>
   <g id="patch_43">
    <path d="M 107.643098 286.599157 
L 115.702696 286.599157 
L 115.702696 129.712275 
L 107.643098 129.712275 
z
" clip-path="url(#p14f05fcda6)" style="fill: #9467bd"/>
   </g>
   <g id="patch_44">
    <path d="M 168.090079 286.599157 
L 176.149677 286.599157 
L 176.149677 90.208384 
L 168.090079 90.208384 
z
" clip-path="url(#p14f05fcda6)" style="fill: #9467bd"/>
   </g>
   <g id="patch_45">
    <path d="M 228.53706 286.599157 
L 236.596658 286.599157 
L 236.596658 103.752575 
L 228.53706 103.752575 
z
" clip-path="url(#p14f05fcda6)" style="fill: #9467bd"/>
   </g>
   <g id="patch_46">
    <path d="M 288.984041 286.599157 
L 297.043639 286.599157 
L 297.043639 110.524671 
L 288.984041 110.524671 
z
" clip-path="url(#p14f05fcda6)" style="fill: #9467bd"/>
   </g>
   <g id="patch_47">
    <path d="M 349.431022 286.599157 
L 357.49062 286.599157 
L 357.49062 161.315388 
L 349.431022 161.315388 
z
" clip-path="url(#p14f05fcda6)" style="fill: #9467bd"/>
   </g>
   <g id="patch_48">
    <path d="M 409.878003 286.599157 
L 417.9376 286.599157 
L 417.9376 69.892097 
L 409.878003 69.892097 
z
" clip-path="url(#p14f05fcda6)" style="fill: #9467bd"/>
   </g>
   <g id="patch_49">
    <path d="M 470.324984 286.599157 
L 478.384581 286.599157 
L 478.384581 163.572753 
L 470.324984 163.572753 
z
" clip-path="url(#p14f05fcda6)" style="fill: #9467bd"/>
   </g>
   <g id="patch_50">
    <path d="M 530.771965 286.599157 
L 538.831562 286.599157 
L 538.831562 85.693653 
L 530.771965 85.693653 
z
" clip-path="url(#p14f05fcda6)" style="fill: #9467bd"/>
   </g>
   <g id="patch_51">
    <path d="M 591.218946 286.599157 
L 599.278543 286.599157 
L 599.278543 81.178923 
L 591.218946 81.178923 
z
" clip-path="url(#p14f05fcda6)" style="fill: #9467bd"/>
   </g>
   <g id="patch_52">
    <path d="M 651.665927 286.599157 
L 659.725524 286.599157 
L 659.725524 116.168084 
L 651.665927 116.168084 
z
" clip-path="url(#p14f05fcda6)" style="fill: #9467bd"/>
   </g>
   <g id="patch_53">
    <path d="M 115.702696 286.599157 
L 123.762293 286.599157 
L 123.762293 126.326227 
L 115.702696 126.326227 
z
" clip-path="url(#p14f05fcda6)" style="fill: #8c564b"/>
   </g>
   <g id="patch_54">
    <path d="M 176.149677 286.599157 
L 184.209274 286.599157 
L 184.209274 34.902936 
L 176.149677 34.902936 
z
" clip-path="url(#p14f05fcda6)" style="fill: #8c564b"/>
   </g>
   <g id="patch_55">
    <path d="M 236.596658 286.599157 
L 244.656255 286.599157 
L 244.656255 66.506049 
L 236.596658 66.506049 
z
" clip-path="url(#p14f05fcda6)" style="fill: #8c564b"/>
   </g>
   <g id="patch_56">
    <path d="M 297.043639 286.599157 
L 305.103236 286.599157 
L 305.103236 69.892097 
L 297.043639 69.892097 
z
" clip-path="url(#p14f05fcda6)" style="fill: #8c564b"/>
   </g>
   <g id="patch_57">
    <path d="M 357.49062 286.599157 
L 365.550217 286.599157 
L 365.550217 125.197545 
L 357.49062 125.197545 
z
" clip-path="url(#p14f05fcda6)" style="fill: #8c564b"/>
   </g>
   <g id="patch_58">
    <path d="M 417.9376 286.599157 
L 425.997198 286.599157 
L 425.997198 58.605271 
L 417.9376 58.605271 
z
" clip-path="url(#p14f05fcda6)" style="fill: #8c564b"/>
   </g>
   <g id="patch_59">
    <path d="M 478.384581 286.599157 
L 486.444179 286.599157 
L 486.444179 135.355688 
L 478.384581 135.355688 
z
" clip-path="url(#p14f05fcda6)" style="fill: #8c564b"/>
   </g>
   <g id="patch_60">
    <path d="M 538.831562 286.599157 
L 546.89116 286.599157 
L 546.89116 47.318445 
L 538.831562 47.318445 
z
" clip-path="url(#p14f05fcda6)" style="fill: #8c564b"/>
   </g>
   <g id="patch_61">
    <path d="M 599.278543 286.599157 
L 607.338141 286.599157 
L 607.338141 37.160301 
L 599.278543 37.160301 
z
" clip-path="url(#p14f05fcda6)" style="fill: #8c564b"/>
   </g>
   <g id="patch_62">
    <path d="M 659.725524 286.599157 
L 667.785122 286.599157 
L 667.785122 72.149462 
L 659.725524 72.149462 
z
" clip-path="url(#p14f05fcda6)" style="fill: #8c564b"/>
   </g>
   <g id="matplotlib.axis_1">
    <g id="xtick_1">
     <g id="line2d_1">
      <defs>
       <path id="m142454b59a" d="M 0 0 
L 0 3.5 
" style="stroke: #000000; stroke-width: 0.8"/>
      </defs>
      <g>
       <use xlink:href="#m142454b59a" x="99.583501" y="286.599157" style="stroke: #000000; stroke-width: 0.8"/>
      </g>
     </g>
     <g id="text_1">
      <!-- multilingualPerturbation -->
      <g transform="translate(12.572907 384.512097) rotate(-45) scale(0.1 -0.1)">
       <defs>
        <path id="DejaVuSans-6d" d="M 3328 2828 
Q 3544 3216 3844 3400 
Q 4144 3584 4550 3584 
Q 5097 3584 5394 3201 
Q 5691 2819 5691 2113 
L 5691 0 
L 5113 0 
L 5113 2094 
Q 5113 2597 4934 2840 
Q 4756 3084 4391 3084 
Q 3944 3084 3684 2787 
Q 3425 2491 3425 1978 
L 3425 0 
L 2847 0 
L 2847 2094 
Q 2847 2600 2669 2842 
Q 2491 3084 2119 3084 
Q 1678 3084 1418 2786 
Q 1159 2488 1159 1978 
L 1159 0 
L 581 0 
L 581 3500 
L 1159 3500 
L 1159 2956 
Q 1356 3278 1631 3431 
Q 1906 3584 2284 3584 
Q 2666 3584 2933 3390 
Q 3200 3197 3328 2828 
z
" transform="scale(0.015625)"/>
        <path id="DejaVuSans-75" d="M 544 1381 
L 544 3500 
L 1119 3500 
L 1119 1403 
Q 1119 906 1312 657 
Q 1506 409 1894 409 
Q 2359 409 2629 706 
Q 2900 1003 2900 1516 
L 2900 3500 
L 3475 3500 
L 3475 0 
L 2900 0 
L 2900 538 
Q 2691 219 2414 64 
Q 2138 -91 1772 -91 
Q 1169 -91 856 284 
Q 544 659 544 1381 
z
M 1991 3584 
L 1991 3584 
z
" transform="scale(0.015625)"/>
        <path id="DejaVuSans-6c" d="M 603 4863 
L 1178 4863 
L 1178 0 
L 603 0 
L 603 4863 
z
" transform="scale(0.015625)"/>
        <path id="DejaVuSans-74" d="M 1172 4494 
L 1172 3500 
L 2356 3500 
L 2356 3053 
L 1172 3053 
L 1172 1153 
Q 1172 725 1289 603 
Q 1406 481 1766 481 
L 2356 481 
L 2356 0 
L 1766 0 
Q 1100 0 847 248 
Q 594 497 594 1153 
L 594 3053 
L 172 3053 
L 172 3500 
L 594 3500 
L 594 4494 
L 1172 4494 
z
" transform="scale(0.015625)"/>
        <path id="DejaVuSans-69" d="M 603 3500 
L 1178 3500 
L 1178 0 
L 603 0 
L 603 3500 
z
M 603 4863 
L 1178 4863 
L 1178 4134 
L 603 4134 
L 603 4863 
z
" transform="scale(0.015625)"/>
        <path id="DejaVuSans-6e" d="M 3513 2113 
L 3513 0 
L 2938 0 
L 2938 2094 
Q 2938 2591 2744 2837 
Q 2550 3084 2163 3084 
Q 1697 3084 1428 2787 
Q 1159 2491 1159 1978 
L 1159 0 
L 581 0 
L 581 3500 
L 1159 3500 
L 1159 2956 
Q 1366 3272 1645 3428 
Q 1925 3584 2291 3584 
Q 2894 3584 3203 3211 
Q 3513 2838 3513 2113 
z
" transform="scale(0.015625)"/>
        <path id="DejaVuSans-67" d="M 2906 1791 
Q 2906 2416 2648 2759 
Q 2391 3103 1925 3103 
Q 1463 3103 1205 2759 
Q 947 2416 947 1791 
Q 947 1169 1205 825 
Q 1463 481 1925 481 
Q 2391 481 2648 825 
Q 2906 1169 2906 1791 
z
M 3481 434 
Q 3481 -459 3084 -895 
Q 2688 -1331 1869 -1331 
Q 1566 -1331 1297 -1286 
Q 1028 -1241 775 -1147 
L 775 -588 
Q 1028 -725 1275 -790 
Q 1522 -856 1778 -856 
Q 2344 -856 2625 -561 
Q 2906 -266 2906 331 
L 2906 616 
Q 2728 306 2450 153 
Q 2172 0 1784 0 
Q 1141 0 747 490 
Q 353 981 353 1791 
Q 353 2603 747 3093 
Q 1141 3584 1784 3584 
Q 2172 3584 2450 3431 
Q 2728 3278 2906 2969 
L 2906 3500 
L 3481 3500 
L 3481 434 
z
" transform="scale(0.015625)"/>
        <path id="DejaVuSans-61" d="M 2194 1759 
Q 1497 1759 1228 1600 
Q 959 1441 959 1056 
Q 959 750 1161 570 
Q 1363 391 1709 391 
Q 2188 391 2477 730 
Q 2766 1069 2766 1631 
L 2766 1759 
L 2194 1759 
z
M 3341 1997 
L 3341 0 
L 2766 0 
L 2766 531 
Q 2569 213 2275 61 
Q 1981 -91 1556 -91 
Q 1019 -91 701 211 
Q 384 513 384 1019 
Q 384 1609 779 1909 
Q 1175 2209 1959 2209 
L 2766 2209 
L 2766 2266 
Q 2766 2663 2505 2880 
Q 2244 3097 1772 3097 
Q 1472 3097 1187 3025 
Q 903 2953 641 2809 
L 641 3341 
Q 956 3463 1253 3523 
Q 1550 3584 1831 3584 
Q 2591 3584 2966 3190 
Q 3341 2797 3341 1997 
z
" transform="scale(0.015625)"/>
        <path id="DejaVuSans-50" d="M 1259 4147 
L 1259 2394 
L 2053 2394 
Q 2494 2394 2734 2622 
Q 2975 2850 2975 3272 
Q 2975 3691 2734 3919 
Q 2494 4147 2053 4147 
L 1259 4147 
z
M 628 4666 
L 2053 4666 
Q 2838 4666 3239 4311 
Q 3641 3956 3641 3272 
Q 3641 2581 3239 2228 
Q 2838 1875 2053 1875 
L 1259 1875 
L 1259 0 
L 628 0 
L 628 4666 
z
" transform="scale(0.015625)"/>
        <path id="DejaVuSans-65" d="M 3597 1894 
L 3597 1613 
L 953 1613 
Q 991 1019 1311 708 
Q 1631 397 2203 397 
Q 2534 397 2845 478 
Q 3156 559 3463 722 
L 3463 178 
Q 3153 47 2828 -22 
Q 2503 -91 2169 -91 
Q 1331 -91 842 396 
Q 353 884 353 1716 
Q 353 2575 817 3079 
Q 1281 3584 2069 3584 
Q 2775 3584 3186 3129 
Q 3597 2675 3597 1894 
z
M 3022 2063 
Q 3016 2534 2758 2815 
Q 2500 3097 2075 3097 
Q 1594 3097 1305 2825 
Q 1016 2553 972 2059 
L 3022 2063 
z
" transform="scale(0.015625)"/>
        <path id="DejaVuSans-72" d="M 2631 2963 
Q 2534 3019 2420 3045 
Q 2306 3072 2169 3072 
Q 1681 3072 1420 2755 
Q 1159 2438 1159 1844 
L 1159 0 
L 581 0 
L 581 3500 
L 1159 3500 
L 1159 2956 
Q 1341 3275 1631 3429 
Q 1922 3584 2338 3584 
Q 2397 3584 2469 3576 
Q 2541 3569 2628 3553 
L 2631 2963 
z
" transform="scale(0.015625)"/>
        <path id="DejaVuSans-62" d="M 3116 1747 
Q 3116 2381 2855 2742 
Q 2594 3103 2138 3103 
Q 1681 3103 1420 2742 
Q 1159 2381 1159 1747 
Q 1159 1113 1420 752 
Q 1681 391 2138 391 
Q 2594 391 2855 752 
Q 3116 1113 3116 1747 
z
M 1159 2969 
Q 1341 3281 1617 3432 
Q 1894 3584 2278 3584 
Q 2916 3584 3314 3078 
Q 3713 2572 3713 1747 
Q 3713 922 3314 415 
Q 2916 -91 2278 -91 
Q 1894 -91 1617 61 
Q 1341 213 1159 525 
L 1159 0 
L 581 0 
L 581 4863 
L 1159 4863 
L 1159 2969 
z
" transform="scale(0.015625)"/>
        <path id="DejaVuSans-6f" d="M 1959 3097 
Q 1497 3097 1228 2736 
Q 959 2375 959 1747 
Q 959 1119 1226 758 
Q 1494 397 1959 397 
Q 2419 397 2687 759 
Q 2956 1122 2956 1747 
Q 2956 2369 2687 2733 
Q 2419 3097 1959 3097 
z
M 1959 3584 
Q 2709 3584 3137 3096 
Q 3566 2609 3566 1747 
Q 3566 888 3137 398 
Q 2709 -91 1959 -91 
Q 1206 -91 779 398 
Q 353 888 353 1747 
Q 353 2609 779 3096 
Q 1206 3584 1959 3584 
z
" transform="scale(0.015625)"/>
       </defs>
       <use xlink:href="#DejaVuSans-6d"/>
       <use xlink:href="#DejaVuSans-75" transform="translate(97.412109 0)"/>
       <use xlink:href="#DejaVuSans-6c" transform="translate(160.791016 0)"/>
       <use xlink:href="#DejaVuSans-74" transform="translate(188.574219 0)"/>
       <use xlink:href="#DejaVuSans-69" transform="translate(227.783203 0)"/>
       <use xlink:href="#DejaVuSans-6c" transform="translate(255.566406 0)"/>
       <use xlink:href="#DejaVuSans-69" transform="translate(283.349609 0)"/>
       <use xlink:href="#DejaVuSans-6e" transform="translate(311.132812 0)"/>
       <use xlink:href="#DejaVuSans-67" transform="translate(374.511719 0)"/>
       <use xlink:href="#DejaVuSans-75" transform="translate(437.988281 0)"/>
       <use xlink:href="#DejaVuSans-61" transform="translate(501.367188 0)"/>
       <use xlink:href="#DejaVuSans-6c" transform="translate(562.646484 0)"/>
       <use xlink:href="#DejaVuSans-50" transform="translate(590.429688 0)"/>
       <use xlink:href="#DejaVuSans-65" transform="translate(647.107422 0)"/>
       <use xlink:href="#DejaVuSans-72" transform="translate(708.630859 0)"/>
       <use xlink:href="#DejaVuSans-74" transform="translate(749.744141 0)"/>
       <use xlink:href="#DejaVuSans-75" transform="translate(788.953125 0)"/>
       <use xlink:href="#DejaVuSans-72" transform="translate(852.332031 0)"/>
       <use xlink:href="#DejaVuSans-62" transform="translate(893.445312 0)"/>
       <use xlink:href="#DejaVuSans-61" transform="translate(956.921875 0)"/>
       <use xlink:href="#DejaVuSans-74" transform="translate(1018.201172 0)"/>
       <use xlink:href="#DejaVuSans-69" transform="translate(1057.410156 0)"/>
       <use xlink:href="#DejaVuSans-6f" transform="translate(1085.193359 0)"/>
       <use xlink:href="#DejaVuSans-6e" transform="translate(1146.375 0)"/>
      </g>
     </g>
    </g>
    <g id="xtick_2">
     <g id="line2d_2">
      <g>
       <use xlink:href="#m142454b59a" x="160.030482" y="286.599157" style="stroke: #000000; stroke-width: 0.8"/>
      </g>
     </g>
     <g id="text_2">
      <!-- pap_affirmation -->
      <g transform="translate(102.691856 354.643465) rotate(-45) scale(0.1 -0.1)">
       <defs>
        <path id="DejaVuSans-70" d="M 1159 525 
L 1159 -1331 
L 581 -1331 
L 581 3500 
L 1159 3500 
L 1159 2969 
Q 1341 3281 1617 3432 
Q 1894 3584 2278 3584 
Q 2916 3584 3314 3078 
Q 3713 2572 3713 1747 
Q 3713 922 3314 415 
Q 2916 -91 2278 -91 
Q 1894 -91 1617 61 
Q 1341 213 1159 525 
z
M 3116 1747 
Q 3116 2381 2855 2742 
Q 2594 3103 2138 3103 
Q 1681 3103 1420 2742 
Q 1159 2381 1159 1747 
Q 1159 1113 1420 752 
Q 1681 391 2138 391 
Q 2594 391 2855 752 
Q 3116 1113 3116 1747 
z
" transform="scale(0.015625)"/>
        <path id="DejaVuSans-5f" d="M 3263 -1063 
L 3263 -1509 
L -63 -1509 
L -63 -1063 
L 3263 -1063 
z
" transform="scale(0.015625)"/>
        <path id="DejaVuSans-66" d="M 2375 4863 
L 2375 4384 
L 1825 4384 
Q 1516 4384 1395 4259 
Q 1275 4134 1275 3809 
L 1275 3500 
L 2222 3500 
L 2222 3053 
L 1275 3053 
L 1275 0 
L 697 0 
L 697 3053 
L 147 3053 
L 147 3500 
L 697 3500 
L 697 3744 
Q 697 4328 969 4595 
Q 1241 4863 1831 4863 
L 2375 4863 
z
" transform="scale(0.015625)"/>
       </defs>
       <use xlink:href="#DejaVuSans-70"/>
       <use xlink:href="#DejaVuSans-61" transform="translate(63.476562 0)"/>
       <use xlink:href="#DejaVuSans-70" transform="translate(124.755859 0)"/>
       <use xlink:href="#DejaVuSans-5f" transform="translate(188.232422 0)"/>
       <use xlink:href="#DejaVuSans-61" transform="translate(238.232422 0)"/>
       <use xlink:href="#DejaVuSans-66" transform="translate(299.511719 0)"/>
       <use xlink:href="#DejaVuSans-66" transform="translate(334.716797 0)"/>
       <use xlink:href="#DejaVuSans-69" transform="translate(369.921875 0)"/>
       <use xlink:href="#DejaVuSans-72" transform="translate(397.705078 0)"/>
       <use xlink:href="#DejaVuSans-6d" transform="translate(437.068359 0)"/>
       <use xlink:href="#DejaVuSans-61" transform="translate(534.480469 0)"/>
       <use xlink:href="#DejaVuSans-74" transform="translate(595.759766 0)"/>
       <use xlink:href="#DejaVuSans-69" transform="translate(634.96875 0)"/>
       <use xlink:href="#DejaVuSans-6f" transform="translate(662.751953 0)"/>
       <use xlink:href="#DejaVuSans-6e" transform="translate(723.933594 0)"/>
      </g>
     </g>
    </g>
    <g id="xtick_3">
     <g id="line2d_3">
      <g>
       <use xlink:href="#m142454b59a" x="220.477463" y="286.599157" style="stroke: #000000; stroke-width: 0.8"/>
      </g>
     </g>
     <g id="text_3">
      <!-- pap_allianceBuilding -->
      <g transform="translate(145.998126 371.784175) rotate(-45) scale(0.1 -0.1)">
       <defs>
        <path id="DejaVuSans-63" d="M 3122 3366 
L 3122 2828 
Q 2878 2963 2633 3030 
Q 2388 3097 2138 3097 
Q 1578 3097 1268 2742 
Q 959 2388 959 1747 
Q 959 1106 1268 751 
Q 1578 397 2138 397 
Q 2388 397 2633 464 
Q 2878 531 3122 666 
L 3122 134 
Q 2881 22 2623 -34 
Q 2366 -91 2075 -91 
Q 1284 -91 818 406 
Q 353 903 353 1747 
Q 353 2603 823 3093 
Q 1294 3584 2113 3584 
Q 2378 3584 2631 3529 
Q 2884 3475 3122 3366 
z
" transform="scale(0.015625)"/>
        <path id="DejaVuSans-42" d="M 1259 2228 
L 1259 519 
L 2272 519 
Q 2781 519 3026 730 
Q 3272 941 3272 1375 
Q 3272 1813 3026 2020 
Q 2781 2228 2272 2228 
L 1259 2228 
z
M 1259 4147 
L 1259 2741 
L 2194 2741 
Q 2656 2741 2882 2914 
Q 3109 3088 3109 3444 
Q 3109 3797 2882 3972 
Q 2656 4147 2194 4147 
L 1259 4147 
z
M 628 4666 
L 2241 4666 
Q 2963 4666 3353 4366 
Q 3744 4066 3744 3513 
Q 3744 3084 3544 2831 
Q 3344 2578 2956 2516 
Q 3422 2416 3680 2098 
Q 3938 1781 3938 1306 
Q 3938 681 3513 340 
Q 3088 0 2303 0 
L 628 0 
L 628 4666 
z
" transform="scale(0.015625)"/>
        <path id="DejaVuSans-64" d="M 2906 2969 
L 2906 4863 
L 3481 4863 
L 3481 0 
L 2906 0 
L 2906 525 
Q 2725 213 2448 61 
Q 2172 -91 1784 -91 
Q 1150 -91 751 415 
Q 353 922 353 1747 
Q 353 2572 751 3078 
Q 1150 3584 1784 3584 
Q 2172 3584 2448 3432 
Q 2725 3281 2906 2969 
z
M 947 1747 
Q 947 1113 1208 752 
Q 1469 391 1925 391 
Q 2381 391 2643 752 
Q 2906 1113 2906 1747 
Q 2906 2381 2643 2742 
Q 2381 3103 1925 3103 
Q 1469 3103 1208 2742 
Q 947 2381 947 1747 
z
" transform="scale(0.015625)"/>
       </defs>
       <use xlink:href="#DejaVuSans-70"/>
       <use xlink:href="#DejaVuSans-61" transform="translate(63.476562 0)"/>
       <use xlink:href="#DejaVuSans-70" transform="translate(124.755859 0)"/>
       <use xlink:href="#DejaVuSans-5f" transform="translate(188.232422 0)"/>
       <use xlink:href="#DejaVuSans-61" transform="translate(238.232422 0)"/>
       <use xlink:href="#DejaVuSans-6c" transform="translate(299.511719 0)"/>
       <use xlink:href="#DejaVuSans-6c" transform="translate(327.294922 0)"/>
       <use xlink:href="#DejaVuSans-69" transform="translate(355.078125 0)"/>
       <use xlink:href="#DejaVuSans-61" transform="translate(382.861328 0)"/>
       <use xlink:href="#DejaVuSans-6e" transform="translate(444.140625 0)"/>
       <use xlink:href="#DejaVuSans-63" transform="translate(507.519531 0)"/>
       <use xlink:href="#DejaVuSans-65" transform="translate(562.5 0)"/>
       <use xlink:href="#DejaVuSans-42" transform="translate(624.023438 0)"/>
       <use xlink:href="#DejaVuSans-75" transform="translate(692.626953 0)"/>
       <use xlink:href="#DejaVuSans-69" transform="translate(756.005859 0)"/>
       <use xlink:href="#DejaVuSans-6c" transform="translate(783.789062 0)"/>
       <use xlink:href="#DejaVuSans-64" transform="translate(811.572266 0)"/>
       <use xlink:href="#DejaVuSans-69" transform="translate(875.048828 0)"/>
       <use xlink:href="#DejaVuSans-6e" transform="translate(902.832031 0)"/>
       <use xlink:href="#DejaVuSans-67" transform="translate(966.210938 0)"/>
      </g>
     </g>
    </g>
    <g id="xtick_4">
     <g id="line2d_4">
      <g>
       <use xlink:href="#m142454b59a" x="280.924444" y="286.599157" style="stroke: #000000; stroke-width: 0.8"/>
      </g>
     </g>
     <g id="text_4">
      <!-- pap_confirmationBias -->
      <g transform="translate(202.879742 375.34954) rotate(-45) scale(0.1 -0.1)">
       <defs>
        <path id="DejaVuSans-73" d="M 2834 3397 
L 2834 2853 
Q 2591 2978 2328 3040 
Q 2066 3103 1784 3103 
Q 1356 3103 1142 2972 
Q 928 2841 928 2578 
Q 928 2378 1081 2264 
Q 1234 2150 1697 2047 
L 1894 2003 
Q 2506 1872 2764 1633 
Q 3022 1394 3022 966 
Q 3022 478 2636 193 
Q 2250 -91 1575 -91 
Q 1294 -91 989 -36 
Q 684 19 347 128 
L 347 722 
Q 666 556 975 473 
Q 1284 391 1588 391 
Q 1994 391 2212 530 
Q 2431 669 2431 922 
Q 2431 1156 2273 1281 
Q 2116 1406 1581 1522 
L 1381 1569 
Q 847 1681 609 1914 
Q 372 2147 372 2553 
Q 372 3047 722 3315 
Q 1072 3584 1716 3584 
Q 2034 3584 2315 3537 
Q 2597 3491 2834 3397 
z
" transform="scale(0.015625)"/>
       </defs>
       <use xlink:href="#DejaVuSans-70"/>
       <use xlink:href="#DejaVuSans-61" transform="translate(63.476562 0)"/>
       <use xlink:href="#DejaVuSans-70" transform="translate(124.755859 0)"/>
       <use xlink:href="#DejaVuSans-5f" transform="translate(188.232422 0)"/>
       <use xlink:href="#DejaVuSans-63" transform="translate(238.232422 0)"/>
       <use xlink:href="#DejaVuSans-6f" transform="translate(293.212891 0)"/>
       <use xlink:href="#DejaVuSans-6e" transform="translate(354.394531 0)"/>
       <use xlink:href="#DejaVuSans-66" transform="translate(417.773438 0)"/>
       <use xlink:href="#DejaVuSans-69" transform="translate(452.978516 0)"/>
       <use xlink:href="#DejaVuSans-72" transform="translate(480.761719 0)"/>
       <use xlink:href="#DejaVuSans-6d" transform="translate(520.125 0)"/>
       <use xlink:href="#DejaVuSans-61" transform="translate(617.537109 0)"/>
       <use xlink:href="#DejaVuSans-74" transform="translate(678.816406 0)"/>
       <use xlink:href="#DejaVuSans-69" transform="translate(718.025391 0)"/>
       <use xlink:href="#DejaVuSans-6f" transform="translate(745.808594 0)"/>
       <use xlink:href="#DejaVuSans-6e" transform="translate(806.990234 0)"/>
       <use xlink:href="#DejaVuSans-42" transform="translate(870.369141 0)"/>
       <use xlink:href="#DejaVuSans-69" transform="translate(938.972656 0)"/>
       <use xlink:href="#DejaVuSans-61" transform="translate(966.755859 0)"/>
       <use xlink:href="#DejaVuSans-73" transform="translate(1028.035156 0)"/>
      </g>
     </g>
    </g>
    <g id="xtick_5">
     <g id="line2d_5">
      <g>
       <use xlink:href="#m142454b59a" x="341.371425" y="286.599157" style="stroke: #000000; stroke-width: 0.8"/>
      </g>
     </g>
     <g id="text_5">
      <!-- pap_loyaltyAppeals -->
      <g transform="translate(270.978945 367.697319) rotate(-45) scale(0.1 -0.1)">
       <defs>
        <path id="DejaVuSans-79" d="M 2059 -325 
Q 1816 -950 1584 -1140 
Q 1353 -1331 966 -1331 
L 506 -1331 
L 506 -850 
L 844 -850 
Q 1081 -850 1212 -737 
Q 1344 -625 1503 -206 
L 1606 56 
L 191 3500 
L 800 3500 
L 1894 763 
L 2988 3500 
L 3597 3500 
L 2059 -325 
z
" transform="scale(0.015625)"/>
        <path id="DejaVuSans-41" d="M 2188 4044 
L 1331 1722 
L 3047 1722 
L 2188 4044 
z
M 1831 4666 
L 2547 4666 
L 4325 0 
L 3669 0 
L 3244 1197 
L 1141 1197 
L 716 0 
L 50 0 
L 1831 4666 
z
" transform="scale(0.015625)"/>
       </defs>
       <use xlink:href="#DejaVuSans-70"/>
       <use xlink:href="#DejaVuSans-61" transform="translate(63.476562 0)"/>
       <use xlink:href="#DejaVuSans-70" transform="translate(124.755859 0)"/>
       <use xlink:href="#DejaVuSans-5f" transform="translate(188.232422 0)"/>
       <use xlink:href="#DejaVuSans-6c" transform="translate(238.232422 0)"/>
       <use xlink:href="#DejaVuSans-6f" transform="translate(266.015625 0)"/>
       <use xlink:href="#DejaVuSans-79" transform="translate(327.197266 0)"/>
       <use xlink:href="#DejaVuSans-61" transform="translate(386.376953 0)"/>
       <use xlink:href="#DejaVuSans-6c" transform="translate(447.65625 0)"/>
       <use xlink:href="#DejaVuSans-74" transform="translate(475.439453 0)"/>
       <use xlink:href="#DejaVuSans-79" transform="translate(514.648438 0)"/>
       <use xlink:href="#DejaVuSans-41" transform="translate(573.828125 0)"/>
       <use xlink:href="#DejaVuSans-70" transform="translate(642.236328 0)"/>
       <use xlink:href="#DejaVuSans-70" transform="translate(705.712891 0)"/>
       <use xlink:href="#DejaVuSans-65" transform="translate(769.189453 0)"/>
       <use xlink:href="#DejaVuSans-61" transform="translate(830.712891 0)"/>
       <use xlink:href="#DejaVuSans-6c" transform="translate(891.992188 0)"/>
       <use xlink:href="#DejaVuSans-73" transform="translate(919.775391 0)"/>
      </g>
     </g>
    </g>
    <g id="xtick_6">
     <g id="line2d_6">
      <g>
       <use xlink:href="#m142454b59a" x="401.818406" y="286.599157" style="stroke: #000000; stroke-width: 0.8"/>
      </g>
     </g>
     <g id="text_6">
      <!-- pap_negativeEmotionAppeal -->
      <g transform="translate(298.686881 400.436363) rotate(-45) scale(0.1 -0.1)">
       <defs>
        <path id="DejaVuSans-76" d="M 191 3500 
L 800 3500 
L 1894 563 
L 2988 3500 
L 3597 3500 
L 2284 0 
L 1503 0 
L 191 3500 
z
" transform="scale(0.015625)"/>
        <path id="DejaVuSans-45" d="M 628 4666 
L 3578 4666 
L 3578 4134 
L 1259 4134 
L 1259 2753 
L 3481 2753 
L 3481 2222 
L 1259 2222 
L 1259 531 
L 3634 531 
L 3634 0 
L 628 0 
L 628 4666 
z
" transform="scale(0.015625)"/>
       </defs>
       <use xlink:href="#DejaVuSans-70"/>
       <use xlink:href="#DejaVuSans-61" transform="translate(63.476562 0)"/>
       <use xlink:href="#DejaVuSans-70" transform="translate(124.755859 0)"/>
       <use xlink:href="#DejaVuSans-5f" transform="translate(188.232422 0)"/>
       <use xlink:href="#DejaVuSans-6e" transform="translate(238.232422 0)"/>
       <use xlink:href="#DejaVuSans-65" transform="translate(301.611328 0)"/>
       <use xlink:href="#DejaVuSans-67" transform="translate(363.134766 0)"/>
       <use xlink:href="#DejaVuSans-61" transform="translate(426.611328 0)"/>
       <use xlink:href="#DejaVuSans-74" transform="translate(487.890625 0)"/>
       <use xlink:href="#DejaVuSans-69" transform="translate(527.099609 0)"/>
       <use xlink:href="#DejaVuSans-76" transform="translate(554.882812 0)"/>
       <use xlink:href="#DejaVuSans-65" transform="translate(614.0625 0)"/>
       <use xlink:href="#DejaVuSans-45" transform="translate(675.585938 0)"/>
       <use xlink:href="#DejaVuSans-6d" transform="translate(738.769531 0)"/>
       <use xlink:href="#DejaVuSans-6f" transform="translate(836.181641 0)"/>
       <use xlink:href="#DejaVuSans-74" transform="translate(897.363281 0)"/>
       <use xlink:href="#DejaVuSans-69" transform="translate(936.572266 0)"/>
       <use xlink:href="#DejaVuSans-6f" transform="translate(964.355469 0)"/>
       <use xlink:href="#DejaVuSans-6e" transform="translate(1025.537109 0)"/>
       <use xlink:href="#DejaVuSans-41" transform="translate(1088.916016 0)"/>
       <use xlink:href="#DejaVuSans-70" transform="translate(1157.324219 0)"/>
       <use xlink:href="#DejaVuSans-70" transform="translate(1220.800781 0)"/>
       <use xlink:href="#DejaVuSans-65" transform="translate(1284.277344 0)"/>
       <use xlink:href="#DejaVuSans-61" transform="translate(1345.800781 0)"/>
       <use xlink:href="#DejaVuSans-6c" transform="translate(1407.080078 0)"/>
      </g>
     </g>
    </g>
    <g id="xtick_7">
     <g id="line2d_7">
      <g>
       <use xlink:href="#m142454b59a" x="462.265386" y="286.599157" style="stroke: #000000; stroke-width: 0.8"/>
      </g>
     </g>
     <g id="text_7">
      <!-- pap_relationshipLeverage -->
      <g transform="translate(369.409008 390.161217) rotate(-45) scale(0.1 -0.1)">
       <defs>
        <path id="DejaVuSans-68" d="M 3513 2113 
L 3513 0 
L 2938 0 
L 2938 2094 
Q 2938 2591 2744 2837 
Q 2550 3084 2163 3084 
Q 1697 3084 1428 2787 
Q 1159 2491 1159 1978 
L 1159 0 
L 581 0 
L 581 4863 
L 1159 4863 
L 1159 2956 
Q 1366 3272 1645 3428 
Q 1925 3584 2291 3584 
Q 2894 3584 3203 3211 
Q 3513 2838 3513 2113 
z
" transform="scale(0.015625)"/>
        <path id="DejaVuSans-4c" d="M 628 4666 
L 1259 4666 
L 1259 531 
L 3531 531 
L 3531 0 
L 628 0 
L 628 4666 
z
" transform="scale(0.015625)"/>
       </defs>
       <use xlink:href="#DejaVuSans-70"/>
       <use xlink:href="#DejaVuSans-61" transform="translate(63.476562 0)"/>
       <use xlink:href="#DejaVuSans-70" transform="translate(124.755859 0)"/>
       <use xlink:href="#DejaVuSans-5f" transform="translate(188.232422 0)"/>
       <use xlink:href="#DejaVuSans-72" transform="translate(238.232422 0)"/>
       <use xlink:href="#DejaVuSans-65" transform="translate(277.095703 0)"/>
       <use xlink:href="#DejaVuSans-6c" transform="translate(338.619141 0)"/>
       <use xlink:href="#DejaVuSans-61" transform="translate(366.402344 0)"/>
       <use xlink:href="#DejaVuSans-74" transform="translate(427.681641 0)"/>
       <use xlink:href="#DejaVuSans-69" transform="translate(466.890625 0)"/>
       <use xlink:href="#DejaVuSans-6f" transform="translate(494.673828 0)"/>
       <use xlink:href="#DejaVuSans-6e" transform="translate(555.855469 0)"/>
       <use xlink:href="#DejaVuSans-73" transform="translate(619.234375 0)"/>
       <use xlink:href="#DejaVuSans-68" transform="translate(671.333984 0)"/>
       <use xlink:href="#DejaVuSans-69" transform="translate(734.712891 0)"/>
       <use xlink:href="#DejaVuSans-70" transform="translate(762.496094 0)"/>
       <use xlink:href="#DejaVuSans-4c" transform="translate(825.972656 0)"/>
       <use xlink:href="#DejaVuSans-65" transform="translate(879.935547 0)"/>
       <use xlink:href="#DejaVuSans-76" transform="translate(941.458984 0)"/>
       <use xlink:href="#DejaVuSans-65" transform="translate(1000.638672 0)"/>
       <use xlink:href="#DejaVuSans-72" transform="translate(1062.162109 0)"/>
       <use xlink:href="#DejaVuSans-61" transform="translate(1103.275391 0)"/>
       <use xlink:href="#DejaVuSans-67" transform="translate(1164.554688 0)"/>
       <use xlink:href="#DejaVuSans-65" transform="translate(1228.03125 0)"/>
      </g>
     </g>
    </g>
    <g id="xtick_8">
     <g id="line2d_8">
      <g>
       <use xlink:href="#m142454b59a" x="522.712367" y="286.599157" style="stroke: #000000; stroke-width: 0.8"/>
      </g>
     </g>
     <g id="text_8">
      <!-- pap_supplyScarcity -->
      <g transform="translate(452.638085 367.379121) rotate(-45) scale(0.1 -0.1)">
       <defs>
        <path id="DejaVuSans-53" d="M 3425 4513 
L 3425 3897 
Q 3066 4069 2747 4153 
Q 2428 4238 2131 4238 
Q 1616 4238 1336 4038 
Q 1056 3838 1056 3469 
Q 1056 3159 1242 3001 
Q 1428 2844 1947 2747 
L 2328 2669 
Q 3034 2534 3370 2195 
Q 3706 1856 3706 1288 
Q 3706 609 3251 259 
Q 2797 -91 1919 -91 
Q 1588 -91 1214 -16 
Q 841 59 441 206 
L 441 856 
Q 825 641 1194 531 
Q 1563 422 1919 422 
Q 2459 422 2753 634 
Q 3047 847 3047 1241 
Q 3047 1584 2836 1778 
Q 2625 1972 2144 2069 
L 1759 2144 
Q 1053 2284 737 2584 
Q 422 2884 422 3419 
Q 422 4038 858 4394 
Q 1294 4750 2059 4750 
Q 2388 4750 2728 4690 
Q 3069 4631 3425 4513 
z
" transform="scale(0.015625)"/>
       </defs>
       <use xlink:href="#DejaVuSans-70"/>
       <use xlink:href="#DejaVuSans-61" transform="translate(63.476562 0)"/>
       <use xlink:href="#DejaVuSans-70" transform="translate(124.755859 0)"/>
       <use xlink:href="#DejaVuSans-5f" transform="translate(188.232422 0)"/>
       <use xlink:href="#DejaVuSans-73" transform="translate(238.232422 0)"/>
       <use xlink:href="#DejaVuSans-75" transform="translate(290.332031 0)"/>
       <use xlink:href="#DejaVuSans-70" transform="translate(353.710938 0)"/>
       <use xlink:href="#DejaVuSans-70" transform="translate(417.1875 0)"/>
       <use xlink:href="#DejaVuSans-6c" transform="translate(480.664062 0)"/>
       <use xlink:href="#DejaVuSans-79" transform="translate(508.447266 0)"/>
       <use xlink:href="#DejaVuSans-53" transform="translate(567.626953 0)"/>
       <use xlink:href="#DejaVuSans-63" transform="translate(631.103516 0)"/>
       <use xlink:href="#DejaVuSans-61" transform="translate(686.083984 0)"/>
       <use xlink:href="#DejaVuSans-72" transform="translate(747.363281 0)"/>
       <use xlink:href="#DejaVuSans-63" transform="translate(786.226562 0)"/>
       <use xlink:href="#DejaVuSans-69" transform="translate(841.207031 0)"/>
       <use xlink:href="#DejaVuSans-74" transform="translate(868.990234 0)"/>
       <use xlink:href="#DejaVuSans-79" transform="translate(908.199219 0)"/>
      </g>
     </g>
    </g>
    <g id="xtick_9">
     <g id="line2d_9">
      <g>
       <use xlink:href="#m142454b59a" x="583.159348" y="286.599157" style="stroke: #000000; stroke-width: 0.8"/>
      </g>
     </g>
     <g id="text_9">
      <!-- simpleCommandAttack -->
      <g transform="translate(499.432381 381.22847) rotate(-45) scale(0.1 -0.1)">
       <defs>
        <path id="DejaVuSans-43" d="M 4122 4306 
L 4122 3641 
Q 3803 3938 3442 4084 
Q 3081 4231 2675 4231 
Q 1875 4231 1450 3742 
Q 1025 3253 1025 2328 
Q 1025 1406 1450 917 
Q 1875 428 2675 428 
Q 3081 428 3442 575 
Q 3803 722 4122 1019 
L 4122 359 
Q 3791 134 3420 21 
Q 3050 -91 2638 -91 
Q 1578 -91 968 557 
Q 359 1206 359 2328 
Q 359 3453 968 4101 
Q 1578 4750 2638 4750 
Q 3056 4750 3426 4639 
Q 3797 4528 4122 4306 
z
" transform="scale(0.015625)"/>
        <path id="DejaVuSans-6b" d="M 581 4863 
L 1159 4863 
L 1159 1991 
L 2875 3500 
L 3609 3500 
L 1753 1863 
L 3688 0 
L 2938 0 
L 1159 1709 
L 1159 0 
L 581 0 
L 581 4863 
z
" transform="scale(0.015625)"/>
       </defs>
       <use xlink:href="#DejaVuSans-73"/>
       <use xlink:href="#DejaVuSans-69" transform="translate(52.099609 0)"/>
       <use xlink:href="#DejaVuSans-6d" transform="translate(79.882812 0)"/>
       <use xlink:href="#DejaVuSans-70" transform="translate(177.294922 0)"/>
       <use xlink:href="#DejaVuSans-6c" transform="translate(240.771484 0)"/>
       <use xlink:href="#DejaVuSans-65" transform="translate(268.554688 0)"/>
       <use xlink:href="#DejaVuSans-43" transform="translate(330.078125 0)"/>
       <use xlink:href="#DejaVuSans-6f" transform="translate(399.902344 0)"/>
       <use xlink:href="#DejaVuSans-6d" transform="translate(461.083984 0)"/>
       <use xlink:href="#DejaVuSans-6d" transform="translate(558.496094 0)"/>
       <use xlink:href="#DejaVuSans-61" transform="translate(655.908203 0)"/>
       <use xlink:href="#DejaVuSans-6e" transform="translate(717.1875 0)"/>
       <use xlink:href="#DejaVuSans-64" transform="translate(780.566406 0)"/>
       <use xlink:href="#DejaVuSans-41" transform="translate(844.042969 0)"/>
       <use xlink:href="#DejaVuSans-74" transform="translate(910.701172 0)"/>
       <use xlink:href="#DejaVuSans-74" transform="translate(949.910156 0)"/>
       <use xlink:href="#DejaVuSans-61" transform="translate(989.119141 0)"/>
       <use xlink:href="#DejaVuSans-63" transform="translate(1050.398438 0)"/>
       <use xlink:href="#DejaVuSans-6b" transform="translate(1105.378906 0)"/>
      </g>
     </g>
    </g>
    <g id="xtick_10">
     <g id="line2d_10">
      <g>
       <use xlink:href="#m142454b59a" x="643.606329" y="286.599157" style="stroke: #000000; stroke-width: 0.8"/>
      </g>
     </g>
     <g id="text_10">
      <!-- systemLevelAttack -->
      <g transform="translate(575.331855 365.775977) rotate(-45) scale(0.1 -0.1)">
       <use xlink:href="#DejaVuSans-73"/>
       <use xlink:href="#DejaVuSans-79" transform="translate(52.099609 0)"/>
       <use xlink:href="#DejaVuSans-73" transform="translate(111.279297 0)"/>
       <use xlink:href="#DejaVuSans-74" transform="translate(163.378906 0)"/>
       <use xlink:href="#DejaVuSans-65" transform="translate(202.587891 0)"/>
       <use xlink:href="#DejaVuSans-6d" transform="translate(264.111328 0)"/>
       <use xlink:href="#DejaVuSans-4c" transform="translate(361.523438 0)"/>
       <use xlink:href="#DejaVuSans-65" transform="translate(415.486328 0)"/>
       <use xlink:href="#DejaVuSans-76" transform="translate(477.009766 0)"/>
       <use xlink:href="#DejaVuSans-65" transform="translate(536.189453 0)"/>
       <use xlink:href="#DejaVuSans-6c" transform="translate(597.712891 0)"/>
       <use xlink:href="#DejaVuSans-41" transform="translate(625.496094 0)"/>
       <use xlink:href="#DejaVuSans-74" transform="translate(692.154297 0)"/>
       <use xlink:href="#DejaVuSans-74" transform="translate(731.363281 0)"/>
       <use xlink:href="#DejaVuSans-61" transform="translate(770.572266 0)"/>
       <use xlink:href="#DejaVuSans-63" transform="translate(831.851562 0)"/>
       <use xlink:href="#DejaVuSans-6b" transform="translate(886.832031 0)"/>
      </g>
     </g>
    </g>
    <g id="text_11">
     <!-- Attack Key -->
     <g transform="translate(344.97929 413.702025) scale(0.1 -0.1)">
      <defs>
       <path id="DejaVuSans-20" transform="scale(0.015625)"/>
       <path id="DejaVuSans-4b" d="M 628 4666 
L 1259 4666 
L 1259 2694 
L 3353 4666 
L 4166 4666 
L 1850 2491 
L 4331 0 
L 3500 0 
L 1259 2247 
L 1259 0 
L 628 0 
L 628 4666 
z
" transform="scale(0.015625)"/>
      </defs>
      <use xlink:href="#DejaVuSans-41"/>
      <use xlink:href="#DejaVuSans-74" transform="translate(66.658203 0)"/>
      <use xlink:href="#DejaVuSans-74" transform="translate(105.867188 0)"/>
      <use xlink:href="#DejaVuSans-61" transform="translate(145.076172 0)"/>
      <use xlink:href="#DejaVuSans-63" transform="translate(206.355469 0)"/>
      <use xlink:href="#DejaVuSans-6b" transform="translate(261.335938 0)"/>
      <use xlink:href="#DejaVuSans-20" transform="translate(319.246094 0)"/>
      <use xlink:href="#DejaVuSans-4b" transform="translate(351.033203 0)"/>
      <use xlink:href="#DejaVuSans-65" transform="translate(411.609375 0)"/>
      <use xlink:href="#DejaVuSans-79" transform="translate(473.132812 0)"/>
     </g>
    </g>
   </g>
   <g id="matplotlib.axis_2">
    <g id="ytick_1">
     <g id="line2d_11">
      <path d="M 45.785688 286.599157 
L 697.404142 286.599157 
" clip-path="url(#p14f05fcda6)" style="fill: none; stroke: #b0b0b0; stroke-opacity: 0.2; stroke-width: 0.8; stroke-linecap: square"/>
     </g>
     <g id="line2d_12">
      <defs>
       <path id="m1febc5fe66" d="M 0 0 
L -3.5 0 
" style="stroke: #000000; stroke-width: 0.8"/>
      </defs>
      <g>
       <use xlink:href="#m1febc5fe66" x="45.785688" y="286.599157" style="stroke: #000000; stroke-width: 0.8"/>
      </g>
     </g>
     <g id="text_12">
      <!-- 0 -->
      <g transform="translate(32.423188 290.398376) scale(0.1 -0.1)">
       <defs>
        <path id="DejaVuSans-30" d="M 2034 4250 
Q 1547 4250 1301 3770 
Q 1056 3291 1056 2328 
Q 1056 1369 1301 889 
Q 1547 409 2034 409 
Q 2525 409 2770 889 
Q 3016 1369 3016 2328 
Q 3016 3291 2770 3770 
Q 2525 4250 2034 4250 
z
M 2034 4750 
Q 2819 4750 3233 4129 
Q 3647 3509 3647 2328 
Q 3647 1150 3233 529 
Q 2819 -91 2034 -91 
Q 1250 -91 836 529 
Q 422 1150 422 2328 
Q 422 3509 836 4129 
Q 1250 4750 2034 4750 
z
" transform="scale(0.015625)"/>
       </defs>
       <use xlink:href="#DejaVuSans-30"/>
      </g>
     </g>
    </g>
    <g id="ytick_2">
     <g id="line2d_13">
      <path d="M 45.785688 241.451853 
L 697.404142 241.451853 
" clip-path="url(#p14f05fcda6)" style="fill: none; stroke: #b0b0b0; stroke-opacity: 0.2; stroke-width: 0.8; stroke-linecap: square"/>
     </g>
     <g id="line2d_14">
      <g>
       <use xlink:href="#m1febc5fe66" x="45.785688" y="241.451853" style="stroke: #000000; stroke-width: 0.8"/>
      </g>
     </g>
     <g id="text_13">
      <!-- 10 -->
      <g transform="translate(26.060688 245.251072) scale(0.1 -0.1)">
       <defs>
        <path id="DejaVuSans-31" d="M 794 531 
L 1825 531 
L 1825 4091 
L 703 3866 
L 703 4441 
L 1819 4666 
L 2450 4666 
L 2450 531 
L 3481 531 
L 3481 0 
L 794 0 
L 794 531 
z
" transform="scale(0.015625)"/>
       </defs>
       <use xlink:href="#DejaVuSans-31"/>
       <use xlink:href="#DejaVuSans-30" transform="translate(63.623047 0)"/>
      </g>
     </g>
    </g>
    <g id="ytick_3">
     <g id="line2d_15">
      <path d="M 45.785688 196.304549 
L 697.404142 196.304549 
" clip-path="url(#p14f05fcda6)" style="fill: none; stroke: #b0b0b0; stroke-opacity: 0.2; stroke-width: 0.8; stroke-linecap: square"/>
     </g>
     <g id="line2d_16">
      <g>
       <use xlink:href="#m1febc5fe66" x="45.785688" y="196.304549" style="stroke: #000000; stroke-width: 0.8"/>
      </g>
     </g>
     <g id="text_14">
      <!-- 20 -->
      <g transform="translate(26.060688 200.103767) scale(0.1 -0.1)">
       <defs>
        <path id="DejaVuSans-32" d="M 1228 531 
L 3431 531 
L 3431 0 
L 469 0 
L 469 531 
Q 828 903 1448 1529 
Q 2069 2156 2228 2338 
Q 2531 2678 2651 2914 
Q 2772 3150 2772 3378 
Q 2772 3750 2511 3984 
Q 2250 4219 1831 4219 
Q 1534 4219 1204 4116 
Q 875 4013 500 3803 
L 500 4441 
Q 881 4594 1212 4672 
Q 1544 4750 1819 4750 
Q 2544 4750 2975 4387 
Q 3406 4025 3406 3419 
Q 3406 3131 3298 2873 
Q 3191 2616 2906 2266 
Q 2828 2175 2409 1742 
Q 1991 1309 1228 531 
z
" transform="scale(0.015625)"/>
       </defs>
       <use xlink:href="#DejaVuSans-32"/>
       <use xlink:href="#DejaVuSans-30" transform="translate(63.623047 0)"/>
      </g>
     </g>
    </g>
    <g id="ytick_4">
     <g id="line2d_17">
      <path d="M 45.785688 151.157244 
L 697.404142 151.157244 
" clip-path="url(#p14f05fcda6)" style="fill: none; stroke: #b0b0b0; stroke-opacity: 0.2; stroke-width: 0.8; stroke-linecap: square"/>
     </g>
     <g id="line2d_18">
      <g>
       <use xlink:href="#m1febc5fe66" x="45.785688" y="151.157244" style="stroke: #000000; stroke-width: 0.8"/>
      </g>
     </g>
     <g id="text_15">
      <!-- 30 -->
      <g transform="translate(26.060688 154.956463) scale(0.1 -0.1)">
       <defs>
        <path id="DejaVuSans-33" d="M 2597 2516 
Q 3050 2419 3304 2112 
Q 3559 1806 3559 1356 
Q 3559 666 3084 287 
Q 2609 -91 1734 -91 
Q 1441 -91 1130 -33 
Q 819 25 488 141 
L 488 750 
Q 750 597 1062 519 
Q 1375 441 1716 441 
Q 2309 441 2620 675 
Q 2931 909 2931 1356 
Q 2931 1769 2642 2001 
Q 2353 2234 1838 2234 
L 1294 2234 
L 1294 2753 
L 1863 2753 
Q 2328 2753 2575 2939 
Q 2822 3125 2822 3475 
Q 2822 3834 2567 4026 
Q 2313 4219 1838 4219 
Q 1578 4219 1281 4162 
Q 984 4106 628 3988 
L 628 4550 
Q 988 4650 1302 4700 
Q 1616 4750 1894 4750 
Q 2613 4750 3031 4423 
Q 3450 4097 3450 3541 
Q 3450 3153 3228 2886 
Q 3006 2619 2597 2516 
z
" transform="scale(0.015625)"/>
       </defs>
       <use xlink:href="#DejaVuSans-33"/>
       <use xlink:href="#DejaVuSans-30" transform="translate(63.623047 0)"/>
      </g>
     </g>
    </g>
    <g id="ytick_5">
     <g id="line2d_19">
      <path d="M 45.785688 106.00994 
L 697.404142 106.00994 
" clip-path="url(#p14f05fcda6)" style="fill: none; stroke: #b0b0b0; stroke-opacity: 0.2; stroke-width: 0.8; stroke-linecap: square"/>
     </g>
     <g id="line2d_20">
      <g>
       <use xlink:href="#m1febc5fe66" x="45.785688" y="106.00994" style="stroke: #000000; stroke-width: 0.8"/>
      </g>
     </g>
     <g id="text_16">
      <!-- 40 -->
      <g transform="translate(26.060688 109.809159) scale(0.1 -0.1)">
       <defs>
        <path id="DejaVuSans-34" d="M 2419 4116 
L 825 1625 
L 2419 1625 
L 2419 4116 
z
M 2253 4666 
L 3047 4666 
L 3047 1625 
L 3713 1625 
L 3713 1100 
L 3047 1100 
L 3047 0 
L 2419 0 
L 2419 1100 
L 313 1100 
L 313 1709 
L 2253 4666 
z
" transform="scale(0.015625)"/>
       </defs>
       <use xlink:href="#DejaVuSans-34"/>
       <use xlink:href="#DejaVuSans-30" transform="translate(63.623047 0)"/>
      </g>
     </g>
    </g>
    <g id="ytick_6">
     <g id="line2d_21">
      <path d="M 45.785688 60.862636 
L 697.404142 60.862636 
" clip-path="url(#p14f05fcda6)" style="fill: none; stroke: #b0b0b0; stroke-opacity: 0.2; stroke-width: 0.8; stroke-linecap: square"/>
     </g>
     <g id="line2d_22">
      <g>
       <use xlink:href="#m1febc5fe66" x="45.785688" y="60.862636" style="stroke: #000000; stroke-width: 0.8"/>
      </g>
     </g>
     <g id="text_17">
      <!-- 50 -->
      <g transform="translate(26.060688 64.661855) scale(0.1 -0.1)">
       <defs>
        <path id="DejaVuSans-35" d="M 691 4666 
L 3169 4666 
L 3169 4134 
L 1269 4134 
L 1269 2991 
Q 1406 3038 1543 3061 
Q 1681 3084 1819 3084 
Q 2600 3084 3056 2656 
Q 3513 2228 3513 1497 
Q 3513 744 3044 326 
Q 2575 -91 1722 -91 
Q 1428 -91 1123 -41 
Q 819 9 494 109 
L 494 744 
Q 775 591 1075 516 
Q 1375 441 1709 441 
Q 2250 441 2565 725 
Q 2881 1009 2881 1497 
Q 2881 1984 2565 2268 
Q 2250 2553 1709 2553 
Q 1456 2553 1204 2497 
Q 953 2441 691 2322 
L 691 4666 
z
" transform="scale(0.015625)"/>
       </defs>
       <use xlink:href="#DejaVuSans-35"/>
       <use xlink:href="#DejaVuSans-30" transform="translate(63.623047 0)"/>
      </g>
     </g>
    </g>
    <g id="text_18">
     <!-- Total mean score -->
     <g transform="translate(19.981 196.925829) rotate(-90) scale(0.1 -0.1)">
      <defs>
       <path id="DejaVuSans-54" d="M -19 4666 
L 3928 4666 
L 3928 4134 
L 2272 4134 
L 2272 0 
L 1638 0 
L 1638 4134 
L -19 4134 
L -19 4666 
z
" transform="scale(0.015625)"/>
      </defs>
      <use xlink:href="#DejaVuSans-54"/>
      <use xlink:href="#DejaVuSans-6f" transform="translate(44.083984 0)"/>
      <use xlink:href="#DejaVuSans-74" transform="translate(105.265625 0)"/>
      <use xlink:href="#DejaVuSans-61" transform="translate(144.474609 0)"/>
      <use xlink:href="#DejaVuSans-6c" transform="translate(205.753906 0)"/>
      <use xlink:href="#DejaVuSans-20" transform="translate(233.537109 0)"/>
      <use xlink:href="#DejaVuSans-6d" transform="translate(265.324219 0)"/>
      <use xlink:href="#DejaVuSans-65" transform="translate(362.736328 0)"/>
      <use xlink:href="#DejaVuSans-61" transform="translate(424.259766 0)"/>
      <use xlink:href="#DejaVuSans-6e" transform="translate(485.539062 0)"/>
      <use xlink:href="#DejaVuSans-20" transform="translate(548.917969 0)"/>
      <use xlink:href="#DejaVuSans-73" transform="translate(580.705078 0)"/>
      <use xlink:href="#DejaVuSans-63" transform="translate(632.804688 0)"/>
      <use xlink:href="#DejaVuSans-6f" transform="translate(687.785156 0)"/>
      <use xlink:href="#DejaVuSans-72" transform="translate(748.966797 0)"/>
      <use xlink:href="#DejaVuSans-65" transform="translate(787.830078 0)"/>
     </g>
    </g>
   </g>
   <g id="patch_63">
    <path d="M 45.785688 286.599157 
L 45.785688 22.318125 
" style="fill: none; stroke: #000000; stroke-width: 0.8; stroke-linejoin: miter; stroke-linecap: square"/>
   </g>
   <g id="patch_64">
    <path d="M 697.404142 286.599157 
L 697.404142 22.318125 
" style="fill: none; stroke: #000000; stroke-width: 0.8; stroke-linejoin: miter; stroke-linecap: square"/>
   </g>
   <g id="patch_65">
    <path d="M 45.785688 286.599157 
L 697.404142 286.599157 
" style="fill: none; stroke: #000000; stroke-width: 0.8; stroke-linejoin: miter; stroke-linecap: square"/>
   </g>
   <g id="patch_66">
    <path d="M 45.785688 22.318125 
L 697.404142 22.318125 
" style="fill: none; stroke: #000000; stroke-width: 0.8; stroke-linejoin: miter; stroke-linecap: square"/>
   </g>
   <g id="text_19">
    <!-- Attack-wise Total Mean Score by Evaluation Round -->
    <g transform="translate(220.277728 16.318125) scale(0.12 -0.12)">
     <defs>
      <path id="DejaVuSans-2d" d="M 313 2009 
L 1997 2009 
L 1997 1497 
L 313 1497 
L 313 2009 
z
" transform="scale(0.015625)"/>
      <path id="DejaVuSans-77" d="M 269 3500 
L 844 3500 
L 1563 769 
L 2278 3500 
L 2956 3500 
L 3675 769 
L 4391 3500 
L 4966 3500 
L 4050 0 
L 3372 0 
L 2619 2869 
L 1863 0 
L 1184 0 
L 269 3500 
z
" transform="scale(0.015625)"/>
      <path id="DejaVuSans-4d" d="M 628 4666 
L 1569 4666 
L 2759 1491 
L 3956 4666 
L 4897 4666 
L 4897 0 
L 4281 0 
L 4281 4097 
L 3078 897 
L 2444 897 
L 1241 4097 
L 1241 0 
L 628 0 
L 628 4666 
z
" transform="scale(0.015625)"/>
      <path id="DejaVuSans-52" d="M 2841 2188 
Q 3044 2119 3236 1894 
Q 3428 1669 3622 1275 
L 4263 0 
L 3584 0 
L 2988 1197 
Q 2756 1666 2539 1819 
Q 2322 1972 1947 1972 
L 1259 1972 
L 1259 0 
L 628 0 
L 628 4666 
L 2053 4666 
Q 2853 4666 3247 4331 
Q 3641 3997 3641 3322 
Q 3641 2881 3436 2590 
Q 3231 2300 2841 2188 
z
M 1259 4147 
L 1259 2491 
L 2053 2491 
Q 2509 2491 2742 2702 
Q 2975 2913 2975 3322 
Q 2975 3731 2742 3939 
Q 2509 4147 2053 4147 
L 1259 4147 
z
" transform="scale(0.015625)"/>
     </defs>
     <use xlink:href="#DejaVuSans-41"/>
     <use xlink:href="#DejaVuSans-74" transform="translate(66.658203 0)"/>
     <use xlink:href="#DejaVuSans-74" transform="translate(105.867188 0)"/>
     <use xlink:href="#DejaVuSans-61" transform="translate(145.076172 0)"/>
     <use xlink:href="#DejaVuSans-63" transform="translate(206.355469 0)"/>
     <use xlink:href="#DejaVuSans-6b" transform="translate(261.335938 0)"/>
     <use xlink:href="#DejaVuSans-2d" transform="translate(319.246094 0)"/>
     <use xlink:href="#DejaVuSans-77" transform="translate(355.330078 0)"/>
     <use xlink:href="#DejaVuSans-69" transform="translate(437.117188 0)"/>
     <use xlink:href="#DejaVuSans-73" transform="translate(464.900391 0)"/>
     <use xlink:href="#DejaVuSans-65" transform="translate(517 0)"/>
     <use xlink:href="#DejaVuSans-20" transform="translate(578.523438 0)"/>
     <use xlink:href="#DejaVuSans-54" transform="translate(610.310547 0)"/>
     <use xlink:href="#DejaVuSans-6f" transform="translate(654.394531 0)"/>
     <use xlink:href="#DejaVuSans-74" transform="translate(715.576172 0)"/>
     <use xlink:href="#DejaVuSans-61" transform="translate(754.785156 0)"/>
     <use xlink:href="#DejaVuSans-6c" transform="translate(816.064453 0)"/>
     <use xlink:href="#DejaVuSans-20" transform="translate(843.847656 0)"/>
     <use xlink:href="#DejaVuSans-4d" transform="translate(875.634766 0)"/>
     <use xlink:href="#DejaVuSans-65" transform="translate(961.914062 0)"/>
     <use xlink:href="#DejaVuSans-61" transform="translate(1023.4375 0)"/>
     <use xlink:href="#DejaVuSans-6e" transform="translate(1084.716797 0)"/>
     <use xlink:href="#DejaVuSans-20" transform="translate(1148.095703 0)"/>
     <use xlink:href="#DejaVuSans-53" transform="translate(1179.882812 0)"/>
     <use xlink:href="#DejaVuSans-63" transform="translate(1243.359375 0)"/>
     <use xlink:href="#DejaVuSans-6f" transform="translate(1298.339844 0)"/>
     <use xlink:href="#DejaVuSans-72" transform="translate(1359.521484 0)"/>
     <use xlink:href="#DejaVuSans-65" transform="translate(1398.384766 0)"/>
     <use xlink:href="#DejaVuSans-20" transform="translate(1459.908203 0)"/>
     <use xlink:href="#DejaVuSans-62" transform="translate(1491.695312 0)"/>
     <use xlink:href="#DejaVuSans-79" transform="translate(1555.171875 0)"/>
     <use xlink:href="#DejaVuSans-20" transform="translate(1614.351562 0)"/>
     <use xlink:href="#DejaVuSans-45" transform="translate(1646.138672 0)"/>
     <use xlink:href="#DejaVuSans-76" transform="translate(1709.322266 0)"/>
     <use xlink:href="#DejaVuSans-61" transform="translate(1768.501953 0)"/>
     <use xlink:href="#DejaVuSans-6c" transform="translate(1829.78125 0)"/>
     <use xlink:href="#DejaVuSans-75" transform="translate(1857.564453 0)"/>
     <use xlink:href="#DejaVuSans-61" transform="translate(1920.943359 0)"/>
     <use xlink:href="#DejaVuSans-74" transform="translate(1982.222656 0)"/>
     <use xlink:href="#DejaVuSans-69" transform="translate(2021.431641 0)"/>
     <use xlink:href="#DejaVuSans-6f" transform="translate(2049.214844 0)"/>
     <use xlink:href="#DejaVuSans-6e" transform="translate(2110.396484 0)"/>
     <use xlink:href="#DejaVuSans-20" transform="translate(2173.775391 0)"/>
     <use xlink:href="#DejaVuSans-52" transform="translate(2205.5625 0)"/>
     <use xlink:href="#DejaVuSans-6f" transform="translate(2270.544922 0)"/>
     <use xlink:href="#DejaVuSans-75" transform="translate(2331.726562 0)"/>
     <use xlink:href="#DejaVuSans-6e" transform="translate(2395.105469 0)"/>
     <use xlink:href="#DejaVuSans-64" transform="translate(2458.484375 0)"/>
    </g>
   </g>
   <g id="legend_1">
    <g id="patch_67">
     <path d="M 52.785688 118.386875 
L 205.577875 118.386875 
Q 207.577875 118.386875 207.577875 116.386875 
L 207.577875 29.318125 
Q 207.577875 27.318125 205.577875 27.318125 
L 52.785688 27.318125 
Q 50.785688 27.318125 50.785688 29.318125 
L 50.785688 116.386875 
Q 50.785688 118.386875 52.785688 118.386875 
z
" style="fill: #ffffff; opacity: 0.8; stroke: #cccccc; stroke-linejoin: miter"/>
    </g>
    <g id="patch_68">
     <path d="M 54.785688 38.916563 
L 74.785688 38.916563 
L 74.785688 31.916563 
L 54.785688 31.916563 
z
" style="fill: #1f77b4"/>
    </g>
    <g id="text_20">
     <!-- Human Evaluation -->
     <g transform="translate(82.785688 38.916563) scale(0.1 -0.1)">
      <defs>
       <path id="DejaVuSans-48" d="M 628 4666 
L 1259 4666 
L 1259 2753 
L 3553 2753 
L 3553 4666 
L 4184 4666 
L 4184 0 
L 3553 0 
L 3553 2222 
L 1259 2222 
L 1259 0 
L 628 0 
L 628 4666 
z
" transform="scale(0.015625)"/>
      </defs>
      <use xlink:href="#DejaVuSans-48"/>
      <use xlink:href="#DejaVuSans-75" transform="translate(75.195312 0)"/>
      <use xlink:href="#DejaVuSans-6d" transform="translate(138.574219 0)"/>
      <use xlink:href="#DejaVuSans-61" transform="translate(235.986328 0)"/>
      <use xlink:href="#DejaVuSans-6e" transform="translate(297.265625 0)"/>
      <use xlink:href="#DejaVuSans-20" transform="translate(360.644531 0)"/>
      <use xlink:href="#DejaVuSans-45" transform="translate(392.431641 0)"/>
      <use xlink:href="#DejaVuSans-76" transform="translate(455.615234 0)"/>
      <use xlink:href="#DejaVuSans-61" transform="translate(514.794922 0)"/>
      <use xlink:href="#DejaVuSans-6c" transform="translate(576.074219 0)"/>
      <use xlink:href="#DejaVuSans-75" transform="translate(603.857422 0)"/>
      <use xlink:href="#DejaVuSans-61" transform="translate(667.236328 0)"/>
      <use xlink:href="#DejaVuSans-74" transform="translate(728.515625 0)"/>
      <use xlink:href="#DejaVuSans-69" transform="translate(767.724609 0)"/>
      <use xlink:href="#DejaVuSans-6f" transform="translate(795.507812 0)"/>
      <use xlink:href="#DejaVuSans-6e" transform="translate(856.689453 0)"/>
     </g>
    </g>
    <g id="patch_69">
     <path d="M 54.785688 53.594688 
L 74.785688 53.594688 
L 74.785688 46.594688 
L 54.785688 46.594688 
z
" style="fill: #ff7f0e"/>
    </g>
    <g id="text_21">
     <!-- gemma4:31b-cloud -->
     <g transform="translate(82.785688 53.594688) scale(0.1 -0.1)">
      <defs>
       <path id="DejaVuSans-3a" d="M 750 794 
L 1409 794 
L 1409 0 
L 750 0 
L 750 794 
z
M 750 3309 
L 1409 3309 
L 1409 2516 
L 750 2516 
L 750 3309 
z
" transform="scale(0.015625)"/>
      </defs>
      <use xlink:href="#DejaVuSans-67"/>
      <use xlink:href="#DejaVuSans-65" transform="translate(63.476562 0)"/>
      <use xlink:href="#DejaVuSans-6d" transform="translate(125 0)"/>
      <use xlink:href="#DejaVuSans-6d" transform="translate(222.412109 0)"/>
      <use xlink:href="#DejaVuSans-61" transform="translate(319.824219 0)"/>
      <use xlink:href="#DejaVuSans-34" transform="translate(381.103516 0)"/>
      <use xlink:href="#DejaVuSans-3a" transform="translate(444.726562 0)"/>
      <use xlink:href="#DejaVuSans-33" transform="translate(478.417969 0)"/>
      <use xlink:href="#DejaVuSans-31" transform="translate(542.041016 0)"/>
      <use xlink:href="#DejaVuSans-62" transform="translate(605.664062 0)"/>
      <use xlink:href="#DejaVuSans-2d" transform="translate(669.140625 0)"/>
      <use xlink:href="#DejaVuSans-63" transform="translate(705.224609 0)"/>
      <use xlink:href="#DejaVuSans-6c" transform="translate(760.205078 0)"/>
      <use xlink:href="#DejaVuSans-6f" transform="translate(787.988281 0)"/>
      <use xlink:href="#DejaVuSans-75" transform="translate(849.169922 0)"/>
      <use xlink:href="#DejaVuSans-64" transform="translate(912.548828 0)"/>
     </g>
    </g>
    <g id="patch_70">
     <path d="M 54.785688 68.272813 
L 74.785688 68.272813 
L 74.785688 61.272813 
L 54.785688 61.272813 
z
" style="fill: #2ca02c"/>
    </g>
    <g id="text_22">
     <!-- gpt-oss:20b-cloud -->
     <g transform="translate(82.785688 68.272813) scale(0.1 -0.1)">
      <use xlink:href="#DejaVuSans-67"/>
      <use xlink:href="#DejaVuSans-70" transform="translate(63.476562 0)"/>
      <use xlink:href="#DejaVuSans-74" transform="translate(126.953125 0)"/>
      <use xlink:href="#DejaVuSans-2d" transform="translate(166.162109 0)"/>
      <use xlink:href="#DejaVuSans-6f" transform="translate(204.121094 0)"/>
      <use xlink:href="#DejaVuSans-73" transform="translate(265.302734 0)"/>
      <use xlink:href="#DejaVuSans-73" transform="translate(317.402344 0)"/>
      <use xlink:href="#DejaVuSans-3a" transform="translate(369.501953 0)"/>
      <use xlink:href="#DejaVuSans-32" transform="translate(403.193359 0)"/>
      <use xlink:href="#DejaVuSans-30" transform="translate(466.816406 0)"/>
      <use xlink:href="#DejaVuSans-62" transform="translate(530.439453 0)"/>
      <use xlink:href="#DejaVuSans-2d" transform="translate(593.916016 0)"/>
      <use xlink:href="#DejaVuSans-63" transform="translate(630 0)"/>
      <use xlink:href="#DejaVuSans-6c" transform="translate(684.980469 0)"/>
      <use xlink:href="#DejaVuSans-6f" transform="translate(712.763672 0)"/>
      <use xlink:href="#DejaVuSans-75" transform="translate(773.945312 0)"/>
      <use xlink:href="#DejaVuSans-64" transform="translate(837.324219 0)"/>
     </g>
    </g>
    <g id="patch_71">
     <path d="M 54.785688 82.950938 
L 74.785688 82.950938 
L 74.785688 75.950938 
L 54.785688 75.950938 
z
" style="fill: #d62728"/>
    </g>
    <g id="text_23">
     <!-- ministral-3:3b-cloud -->
     <g transform="translate(82.785688 82.950938) scale(0.1 -0.1)">
      <use xlink:href="#DejaVuSans-6d"/>
      <use xlink:href="#DejaVuSans-69" transform="translate(97.412109 0)"/>
      <use xlink:href="#DejaVuSans-6e" transform="translate(125.195312 0)"/>
      <use xlink:href="#DejaVuSans-69" transform="translate(188.574219 0)"/>
      <use xlink:href="#DejaVuSans-73" transform="translate(216.357422 0)"/>
      <use xlink:href="#DejaVuSans-74" transform="translate(268.457031 0)"/>
      <use xlink:href="#DejaVuSans-72" transform="translate(307.666016 0)"/>
      <use xlink:href="#DejaVuSans-61" transform="translate(348.779297 0)"/>
      <use xlink:href="#DejaVuSans-6c" transform="translate(410.058594 0)"/>
      <use xlink:href="#DejaVuSans-2d" transform="translate(437.841797 0)"/>
      <use xlink:href="#DejaVuSans-33" transform="translate(473.925781 0)"/>
      <use xlink:href="#DejaVuSans-3a" transform="translate(537.548828 0)"/>
      <use xlink:href="#DejaVuSans-33" transform="translate(571.240234 0)"/>
      <use xlink:href="#DejaVuSans-62" transform="translate(634.863281 0)"/>
      <use xlink:href="#DejaVuSans-2d" transform="translate(698.339844 0)"/>
      <use xlink:href="#DejaVuSans-63" transform="translate(734.423828 0)"/>
      <use xlink:href="#DejaVuSans-6c" transform="translate(789.404297 0)"/>
      <use xlink:href="#DejaVuSans-6f" transform="translate(817.1875 0)"/>
      <use xlink:href="#DejaVuSans-75" transform="translate(878.369141 0)"/>
      <use xlink:href="#DejaVuSans-64" transform="translate(941.748047 0)"/>
     </g>
    </g>
    <g id="patch_72">
     <path d="M 54.785688 97.629063 
L 74.785688 97.629063 
L 74.785688 90.629063 
L 54.785688 90.629063 
z
" style="fill: #9467bd"/>
    </g>
    <g id="text_24">
     <!-- nemotron-3-super:cloud -->
     <g transform="translate(82.785688 97.629063) scale(0.1 -0.1)">
      <use xlink:href="#DejaVuSans-6e"/>
      <use xlink:href="#DejaVuSans-65" transform="translate(63.378906 0)"/>
      <use xlink:href="#DejaVuSans-6d" transform="translate(124.902344 0)"/>
      <use xlink:href="#DejaVuSans-6f" transform="translate(222.314453 0)"/>
      <use xlink:href="#DejaVuSans-74" transform="translate(283.496094 0)"/>
      <use xlink:href="#DejaVuSans-72" transform="translate(322.705078 0)"/>
      <use xlink:href="#DejaVuSans-6f" transform="translate(361.568359 0)"/>
      <use xlink:href="#DejaVuSans-6e" transform="translate(422.75 0)"/>
      <use xlink:href="#DejaVuSans-2d" transform="translate(486.128906 0)"/>
      <use xlink:href="#DejaVuSans-33" transform="translate(522.212891 0)"/>
      <use xlink:href="#DejaVuSans-2d" transform="translate(585.835938 0)"/>
      <use xlink:href="#DejaVuSans-73" transform="translate(621.919922 0)"/>
      <use xlink:href="#DejaVuSans-75" transform="translate(674.019531 0)"/>
      <use xlink:href="#DejaVuSans-70" transform="translate(737.398438 0)"/>
      <use xlink:href="#DejaVuSans-65" transform="translate(800.875 0)"/>
      <use xlink:href="#DejaVuSans-72" transform="translate(862.398438 0)"/>
      <use xlink:href="#DejaVuSans-3a" transform="translate(901.761719 0)"/>
      <use xlink:href="#DejaVuSans-63" transform="translate(935.453125 0)"/>
      <use xlink:href="#DejaVuSans-6c" transform="translate(990.433594 0)"/>
      <use xlink:href="#DejaVuSans-6f" transform="translate(1018.216797 0)"/>
      <use xlink:href="#DejaVuSans-75" transform="translate(1079.398438 0)"/>
      <use xlink:href="#DejaVuSans-64" transform="translate(1142.777344 0)"/>
     </g>
    </g>
    <g id="patch_73">
     <path d="M 54.785688 112.307188 
L 74.785688 112.307188 
L 74.785688 105.307188 
L 54.785688 105.307188 
z
" style="fill: #8c564b"/>
    </g>
    <g id="text_25">
     <!-- qwen3-coder-next:cloud -->
     <g transform="translate(82.785688 112.307188) scale(0.1 -0.1)">
      <defs>
       <path id="DejaVuSans-71" d="M 947 1747 
Q 947 1113 1208 752 
Q 1469 391 1925 391 
Q 2381 391 2643 752 
Q 2906 1113 2906 1747 
Q 2906 2381 2643 2742 
Q 2381 3103 1925 3103 
Q 1469 3103 1208 2742 
Q 947 2381 947 1747 
z
M 2906 525 
Q 2725 213 2448 61 
Q 2172 -91 1784 -91 
Q 1150 -91 751 415 
Q 353 922 353 1747 
Q 353 2572 751 3078 
Q 1150 3584 1784 3584 
Q 2172 3584 2448 3432 
Q 2725 3281 2906 2969 
L 2906 3500 
L 3481 3500 
L 3481 -1331 
L 2906 -1331 
L 2906 525 
z
" transform="scale(0.015625)"/>
       <path id="DejaVuSans-78" d="M 3513 3500 
L 2247 1797 
L 3578 0 
L 2900 0 
L 1881 1375 
L 863 0 
L 184 0 
L 1544 1831 
L 300 3500 
L 978 3500 
L 1906 2253 
L 2834 3500 
L 3513 3500 
z
" transform="scale(0.015625)"/>
      </defs>
      <use xlink:href="#DejaVuSans-71"/>
      <use xlink:href="#DejaVuSans-77" transform="translate(63.476562 0)"/>
      <use xlink:href="#DejaVuSans-65" transform="translate(145.263672 0)"/>
      <use xlink:href="#DejaVuSans-6e" transform="translate(206.787109 0)"/>
      <use xlink:href="#DejaVuSans-33" transform="translate(270.166016 0)"/>
      <use xlink:href="#DejaVuSans-2d" transform="translate(333.789062 0)"/>
      <use xlink:href="#DejaVuSans-63" transform="translate(369.873047 0)"/>
      <use xlink:href="#DejaVuSans-6f" transform="translate(424.853516 0)"/>
      <use xlink:href="#DejaVuSans-64" transform="translate(486.035156 0)"/>
      <use xlink:href="#DejaVuSans-65" transform="translate(549.511719 0)"/>
      <use xlink:href="#DejaVuSans-72" transform="translate(611.035156 0)"/>
      <use xlink:href="#DejaVuSans-2d" transform="translate(645.773438 0)"/>
      <use xlink:href="#DejaVuSans-6e" transform="translate(681.857422 0)"/>
      <use xlink:href="#DejaVuSans-65" transform="translate(745.236328 0)"/>
      <use xlink:href="#DejaVuSans-78" transform="translate(805.009766 0)"/>
      <use xlink:href="#DejaVuSans-74" transform="translate(864.189453 0)"/>
      <use xlink:href="#DejaVuSans-3a" transform="translate(903.398438 0)"/>
      <use xlink:href="#DejaVuSans-63" transform="translate(937.089844 0)"/>
      <use xlink:href="#DejaVuSans-6c" transform="translate(992.070312 0)"/>
      <use xlink:href="#DejaVuSans-6f" transform="translate(1019.853516 0)"/>
      <use xlink:href="#DejaVuSans-75" transform="translate(1081.035156 0)"/>
      <use xlink:href="#DejaVuSans-64" transform="translate(1144.414062 0)"/>
     </g>
    </g>
   </g>
  </g>
 </g>
 <defs>
  <clipPath id="p14f05fcda6">
   <rect x="45.785688" y="22.318125" width="651.618454" height="264.281032"/>
  </clipPath>
 </defs>
</svg>
